<?xml version="1.0" standalone="no"?>
<!DOCTYPE svg PUBLIC "-//W3C//DTD SVG 20010904//EN"
 "http://www.w3.org/TR/2001/REC-SVG-20010904/DTD/svg10.dtd">
<svg version="1.0" xmlns="http://www.w3.org/2000/svg"
 width="520.000000pt" height="332.000000pt" viewBox="0 0 520.000000 332.000000"
 preserveAspectRatio="xMidYMid meet">

<g transform="translate(0.000000,332.000000) scale(0.100000,-0.100000)"
fill="#000000" stroke="none">
<path d="M2514 3166 c-87 -14 -151 -40 -168 -68 -7 -12 -7 -31 2 -63 32 -121
6 -180 -103 -235 -60 -29 -80 -35 -140 -35 -84 0 -114 18 -145 85 -47 101 -53
109 -81 115 -34 8 -144 -29 -232 -78 -200 -112 -308 -265 -442 -627 -133 -359
-229 -499 -436 -633 -107 -69 -196 -110 -384 -174 -188 -64 -262 -231 -179
-401 29 -59 87 -109 364 -312 79 -58 211 -155 294 -217 l150 -112 30 18 c17
10 94 54 171 96 582 322 1226 576 1860 734 359 89 882 177 1200 201 83 6 168
14 190 18 46 8 26 -37 185 422 49 140 107 308 129 372 47 133 50 182 21 261
-39 103 -146 178 -253 179 -28 0 -104 -14 -167 -32 -212 -58 -379 -72 -534
-45 -159 28 -282 90 -556 281 -204 143 -269 179 -390 221 -116 39 -258 50
-386 29z"/>
<path d="M4299 1306 c-2 -3 -58 -9 -124 -16 -66 -6 -138 -15 -160 -21 -67 -18
-240 -88 -435 -176 -30 -14 -118 -53 -195 -88 -472 -212 -1556 -763 -1615
-821 -25 -24 7 -17 146 33 262 94 897 307 1159 388 493 153 753 225 1090 300
132 30 206 51 218 63 16 17 17 28 6 163 -12 152 -22 179 -64 179 -12 0 -24 -2
-26 -4z"/>
<path d="M4557 1283 c-16 -19 -16 -20 0 -35 10 -9 38 -26 63 -38 129 -65 261
-183 319 -283 18 -32 37 -57 43 -57 32 0 138 105 138 136 0 40 -80 144 -149
195 -96 71 -154 91 -286 97 -100 4 -112 2 -128 -15z"/>
<path d="M3075 1088 c-60 -16 -138 -36 -172 -45 -69 -16 -83 -33 -29 -33 51 0
234 45 295 72 82 37 37 40 -94 6z"/>
<path d="M4566 1018 c-3 -13 -8 -40 -11 -60 -8 -49 -60 -117 -112 -146 -23
-13 -75 -30 -115 -38 -40 -8 -77 -19 -82 -24 -13 -13 75 -140 130 -189 57 -50
165 -106 232 -120 123 -26 233 -7 252 44 13 34 12 167 -1 224 -23 101 -99 211
-202 292 -56 45 -84 50 -91 17z"/>
<path d="M2220 790 c-87 -7 -103 -13 -315 -105 -126 -55 -433 -204 -547 -266
-43 -23 -80 -51 -84 -61 -4 -13 14 -39 63 -93 37 -41 74 -75 83 -75 8 0 30 9
48 20 110 67 793 431 985 524 53 26 97 51 97 57 0 10 -198 10 -330 -1z"/>
</g>
</svg>
